<svg version="1.1" id="Layer_1" xmlns="http://www.w3.org/2000/svg" xmlns:xlink="http://www.w3.org/1999/xlink" x="0px" y="0px"
	 width="100%" viewBox="0 0 2000 1607" enable-background="new 0 0 2000 1607" xml:space="preserve">
<path fill="#4C6971" opacity="1.000000" stroke="none" 
	d="
M1018.794312,1.352659 
	C1344.626953,1.000000 1670.253906,1.007224 1995.880859,0.914435 
	C1999.793579,0.913320 2001.135620,1.325481 2001.134399,5.879729 
	C2000.991821,538.314758 2000.994873,1070.749878 2001.101196,1603.184937 
	C2001.101929,1607.101562 2000.510010,1608.120605 1996.316162,1608.118896 
	C1668.856567,1607.989380 1341.396973,1608.000000 1013.468628,1608.000000 
	C1011.075867,1604.774536 1013.748901,1604.844360 1015.607666,1604.428833 
	C1024.231689,1602.501587 1032.799438,1600.436523 1041.009277,1597.037354 
	C1059.713257,1589.293335 1076.293091,1578.167603 1091.131958,1564.607178 
	C1121.771240,1536.606934 1150.159180,1506.301880 1179.676880,1477.150879 
	C1201.374878,1455.722534 1222.911865,1434.128906 1244.325562,1412.416626 
	C1248.475342,1408.208984 1252.736938,1406.352417 1258.776123,1406.370850 
	C1325.935425,1406.575073 1393.096680,1406.722290 1460.254883,1406.379028 
	C1483.657349,1406.259399 1506.745239,1403.006226 1528.898926,1394.781982 
	C1560.751221,1382.957397 1582.746094,1361.126587 1595.240723,1329.625977 
	C1603.118774,1309.764282 1607.099976,1289.013916 1608.432007,1267.795410 
	C1610.887451,1228.681641 1609.005981,1189.511353 1609.459473,1150.368530 
	C1609.691162,1130.373169 1609.310425,1110.370483 1609.574585,1090.375977 
	C1609.722290,1079.197266 1608.359375,1068.108398 1608.317627,1056.936646 
	C1608.294556,1050.761719 1610.258179,1046.450684 1614.553223,1042.182983 
	C1653.327637,1003.657532 1691.900879,964.929810 1730.587891,926.316223 
	C1747.454102,909.482117 1764.530884,892.883301 1777.984863,872.981934 
	C1791.993774,852.259827 1801.483643,829.903687 1802.317993,804.686707 
	C1803.105225,780.890320 1795.730835,759.063416 1784.104004,738.535645 
	C1772.851196,718.668213 1758.364868,701.262817 1742.642822,684.893311 
	C1728.677734,670.353271 1714.523804,655.962585 1699.855713,642.138123 
	C1671.105835,615.042114 1644.047852,586.247864 1615.528564,558.940613 
	C1609.166504,552.849060 1607.439941,546.446777 1608.840332,538.438171 
	C1609.475952,534.804199 1609.498657,531.142273 1609.498779,527.474976 
	C1609.501221,470.147400 1609.963257,412.814514 1609.307129,355.494446 
	C1608.971558,326.183746 1604.184448,297.410187 1591.331421,270.566101 
	C1576.424683,239.432693 1551.469482,220.368988 1518.820312,210.811005 
	C1498.535034,204.872528 1477.686768,202.564041 1456.612427,202.533325 
	C1392.952271,202.440536 1329.291748,202.449265 1265.631836,202.593948 
	C1260.347290,202.605957 1256.926636,200.816849 1253.319458,196.938385 
	C1237.999268,180.466156 1221.816040,164.820663 1205.818481,149.006546 
	C1177.733154,121.243484 1150.945068,92.200050 1122.562256,64.737366 
	C1104.062744,46.837509 1084.286743,30.535162 1061.452393,18.340755 
	C1049.175049,11.784121 1036.115601,7.333105 1022.436890,4.671675 
	C1020.859192,4.364713 1017.930786,5.170654 1018.794312,1.352659 
z"/>
<path fill="#4C6971" opacity="1.000000" stroke="none" 
	d="
M983.205505,1607.647705 
	C657.373047,1608.000000 331.746063,1607.992798 6.119112,1608.085571 
	C2.206366,1608.086670 0.864281,1607.674561 0.865501,1603.120361 
	C1.008097,1070.685303 1.005259,538.250122 0.898968,5.815049 
	C0.898187,1.898361 1.490098,0.879441 5.683860,0.881100 
	C333.143433,1.010691 660.603088,1.000000 988.531372,1.000000 
	C990.926819,4.226721 988.255310,4.176744 986.392517,4.566737 
	C977.572815,6.413226 968.891602,8.648193 960.536255,12.147195 
	C941.861877,19.967478 925.310608,31.132513 910.507263,44.726879 
	C878.463379,74.153870 848.675354,105.886757 817.728516,136.438141 
	C797.449402,156.458130 777.332275,176.644135 757.315552,196.926437 
	C753.419312,200.874451 749.404297,202.628113 743.751770,202.613434 
	C676.424438,202.438477 609.095215,202.272736 541.769165,202.620667 
	C517.515259,202.746002 493.550537,206.026337 470.772705,215.037292 
	C438.470947,227.815964 416.920471,251.004883 405.148651,283.547577 
	C398.347565,302.348877 395.225372,321.829529 393.365784,341.656433 
	C392.177856,354.322174 392.575562,366.959076 392.544037,379.606293 
	C392.431427,424.768951 392.645935,469.932892 392.406311,515.094604 
	C392.339081,527.770996 393.641754,540.367676 393.635132,553.034424 
	C393.632324,558.471924 391.891693,562.345764 388.108826,566.112244 
	C350.672882,603.385498 313.315216,640.737732 276.007050,678.139038 
	C260.600098,693.584473 244.530609,708.419312 231.289734,725.898193 
	C217.149536,744.564148 205.978210,764.605957 201.553482,787.970398 
	C195.919006,817.722595 203.435410,844.833862 217.964279,870.458862 
	C230.716354,892.950134 247.460526,912.379395 265.691772,930.553589 
	C305.931610,970.667664 346.687469,1010.260498 386.866577,1050.438477 
	C392.805542,1056.377319 394.433075,1062.423218 393.240723,1069.987183 
	C392.666565,1073.629395 392.500824,1077.275146 392.500824,1080.944458 
	C392.500610,1138.606323 392.039093,1196.273315 392.691711,1253.927856 
	C393.025543,1283.420288 397.948975,1312.324463 411.067261,1339.256836 
	C426.109558,1370.139160 451.096466,1388.921631 483.575562,1398.291504 
	C503.708313,1404.099487 524.424316,1406.390503 545.313965,1406.442993 
	C608.308472,1406.601562 671.303772,1406.574219 734.298096,1406.388306 
	C740.772522,1406.369263 745.141052,1408.208008 749.724670,1413.128784 
	C765.848389,1430.438843 782.882202,1446.891357 799.704102,1463.533813 
	C826.593628,1490.136475 852.225830,1517.980835 879.434753,1544.261597 
	C897.947571,1562.142944 917.702209,1578.474854 940.544922,1590.659302 
	C952.825745,1597.210083 965.882263,1601.667969 979.561707,1604.327759 
	C981.140564,1604.634888 984.072266,1603.824829 983.205505,1607.647705 
z"/>
<path fill="#000000" opacity="1.000000" stroke="none" 
	d="
M983.468628,1608.000000 
	C974.659973,1605.759033 966.200317,1604.079590 957.998108,1601.185547 
	C939.559448,1594.679443 923.452698,1584.295532 908.052979,1572.568970 
	C881.491638,1552.343140 858.895325,1527.872559 835.830322,1504.021973 
	C807.002380,1474.212524 777.011780,1445.569092 748.442810,1415.534058 
	C743.341858,1410.171387 738.560059,1408.862061 731.791992,1408.882568 
	C666.971497,1409.078857 602.144348,1409.504761 537.331665,1408.764282 
	C509.377167,1408.444946 481.899658,1403.836060 456.629272,1390.331909 
	C432.412811,1377.390991 415.703278,1357.856201 405.103943,1332.862915 
	C398.384155,1317.017700 394.319794,1300.348633 392.226227,1283.341675 
	C390.978363,1273.204346 389.912964,1262.985352 389.936462,1252.679199 
	C390.068298,1194.785522 390.056183,1136.891479 389.909180,1078.997925 
	C389.895172,1073.485474 391.241913,1068.156006 391.085938,1062.651733 
	C391.005096,1059.799072 390.300659,1057.712891 388.226837,1055.649292 
	C361.414917,1028.967529 335.078308,1001.794373 307.808899,975.591125 
	C290.403412,958.866150 273.199402,941.944824 256.377991,924.663818 
	C237.207108,904.968933 220.184357,883.507019 208.677277,858.228760 
	C203.195343,846.186157 199.564331,833.637146 197.898239,820.414490 
	C194.202820,791.086121 202.868759,765.039856 217.975128,740.501465 
	C228.008545,724.203308 240.499283,709.956055 253.988724,696.486511 
	C298.442902,652.097839 342.819214,607.631104 387.325256,563.294617 
	C390.035278,560.594971 391.178894,557.937195 391.057587,554.149841 
	C388.882660,486.224396 389.839508,418.273193 390.299469,350.343842 
	C390.504761,320.028046 396.470734,290.293610 411.418518,263.244659 
	C428.049561,233.149704 454.110077,215.421936 486.981476,207.006119 
	C500.263641,203.605576 513.713623,201.640778 527.442505,200.742172 
	C535.246948,200.231354 543.020569,200.054337 550.801575,200.044830 
	C615.622559,199.965744 680.443848,199.967773 745.264771,200.080978 
	C749.085266,200.087646 751.701355,198.908813 754.365845,196.236481 
	C802.956848,147.501068 851.520935,98.737587 900.375000,50.266525 
	C915.783203,34.979053 933.144165,22.081390 952.835876,12.625684 
	C964.176392,7.180113 976.019470,3.271464 988.776611,1.332286 
	C998.687561,1.000000 1008.375122,1.000000 1018.531372,1.000000 
	C1027.340698,3.240611 1035.801025,4.920215 1044.003784,7.814876 
	C1062.443604,14.322107 1078.554565,24.703218 1093.950806,36.436653 
	C1120.905640,56.978905 1143.809570,81.854073 1167.236694,106.052277 
	C1195.734985,135.488586 1225.363159,163.792786 1253.571777,193.484680 
	C1258.680664,198.862335 1263.480957,200.132950 1270.233154,200.113358 
	C1335.391968,199.924362 1400.556396,199.535019 1465.708618,200.219559 
	C1493.369141,200.510178 1520.461304,205.372803 1545.395386,218.702942 
	C1569.750732,231.723572 1586.579956,251.335297 1597.008911,276.663696 
	C1604.205811,294.142792 1608.226807,312.369232 1610.151001,331.173553 
	C1611.146362,340.901917 1612.039185,350.584412 1612.029053,360.371887 
	C1611.969971,417.198792 1612.026978,474.025787 1611.956299,530.852661 
	C1611.949585,536.301392 1611.393188,541.753784 1610.974731,547.195496 
	C1610.792847,549.561707 1611.662354,551.240723 1613.317627,552.890930 
	C1639.990601,579.480103 1666.221313,606.528076 1693.387329,632.601990 
	C1711.285400,649.780640 1728.940552,667.195557 1746.230225,684.953186 
	C1765.291504,704.530457 1782.167114,725.916687 1793.520020,751.087158 
	C1801.713867,769.253784 1806.233643,788.303406 1804.903198,808.306213 
	C1803.461914,829.973938 1795.875732,849.733887 1784.389282,868.007690 
	C1773.962769,884.595276 1761.288452,899.347290 1747.407104,913.166748 
	C1703.119141,957.256775 1659.015137,1001.531311 1614.750122,1045.644531 
	C1612.071533,1048.313843 1610.812744,1050.926514 1610.935181,1054.754761 
	C1613.099121,1122.351807 1612.151001,1189.974365 1611.714111,1257.576294 
	C1611.517212,1288.061768 1605.676147,1317.953003 1590.872559,1345.268921 
	C1577.663940,1369.641724 1557.703735,1386.504395 1531.951416,1396.490479 
	C1513.523071,1403.636353 1494.347900,1406.999756 1474.609985,1408.242188 
	C1466.304321,1408.765137 1458.031250,1408.939697 1449.750732,1408.951172 
	C1385.424683,1409.039551 1321.098633,1409.031128 1256.772583,1408.921631 
	C1252.967651,1408.915161 1250.333252,1410.050781 1247.657349,1412.734985 
	C1199.065796,1461.477295 1150.497314,1510.243774 1101.639893,1558.718750 
	C1086.230591,1574.007080 1068.869507,1586.902466 1049.180176,1596.371216 
	C1037.832642,1601.828247 1025.938232,1605.573486 1013.223145,1607.667847 
	C1003.312439,1608.000000 993.624878,1608.000000 983.468628,1608.000000 
z"/>
<path fill="#4C6971" opacity="1.000000" stroke="none" 
	d="
M1540.750000,514.250000 
	C1555.495972,528.993164 1569.925415,543.554077 1584.549683,557.916687 
	C1587.169312,560.489197 1588.072144,563.076050 1588.067749,566.658447 
	C1587.977783,640.819763 1588.000000,714.981140 1588.000000,789.142517 
	C1588.000000,870.367493 1587.967163,951.592468 1588.085327,1032.817261 
	C1588.092041,1037.451904 1586.934204,1040.782715 1583.529175,1044.149048 
	C1556.153076,1071.214478 1529.099609,1098.606323 1501.681763,1125.628906 
	C1496.890259,1130.351562 1497.414429,1137.087280 1499.727905,1141.045166 
	C1502.489258,1145.768921 1509.059814,1147.242065 1514.762329,1144.988403 
	C1516.592651,1144.264771 1517.666748,1142.802124 1518.934570,1141.537109 
	C1540.405884,1120.113770 1561.836914,1098.650146 1583.315063,1077.233765 
	C1584.430298,1076.121582 1585.413696,1073.893433 1587.099365,1074.529907 
	C1588.866821,1075.197266 1587.915771,1077.476074 1587.971313,1079.034302 
	C1589.990356,1135.802124 1588.842773,1192.591187 1588.876221,1249.369629 
	C1588.890381,1273.380737 1585.315186,1297.039551 1576.925537,1319.704834 
	C1565.254395,1351.234741 1542.295776,1370.256226 1510.273926,1378.973755 
	C1496.049194,1382.846313 1481.584351,1384.633911 1466.811401,1385.109253 
	C1403.702515,1387.139648 1340.584473,1385.403687 1277.474243,1385.951294 
	C1277.021240,1385.955322 1276.566162,1385.732544 1275.999268,1385.586670 
	C1276.186768,1383.422729 1277.999878,1382.553833 1279.204712,1381.343994 
	C1296.609497,1363.867554 1314.090088,1346.466675 1331.492920,1328.988281 
	C1338.873047,1321.576172 1336.398560,1310.994873 1326.736084,1308.366089 
	C1321.778931,1307.017456 1318.090210,1309.415405 1314.790283,1312.713867 
	C1291.687378,1335.805176 1268.544434,1358.856934 1245.553345,1382.059082 
	C1242.763550,1384.874390 1240.039429,1386.109863 1236.021118,1386.092041 
	C1200.357666,1385.933594 1164.693237,1385.998169 1129.029175,1386.001343 
	C1119.892944,1386.002197 1116.005249,1389.286499 1116.000610,1396.981934 
	C1115.995728,1405.240112 1120.170654,1408.993408 1129.429688,1408.996460 
	C1156.927734,1409.005737 1184.425781,1408.987305 1211.923828,1409.034302 
	C1213.482422,1409.036987 1215.756226,1408.156616 1216.451538,1409.866821 
	C1217.148315,1411.580933 1214.899048,1412.547119 1213.794678,1413.653076 
	C1171.990234,1455.516846 1130.362549,1497.560791 1088.205322,1539.066772 
	C1073.145020,1553.894287 1056.585083,1567.109619 1037.055298,1575.989990 
	C1012.703491,1587.062988 988.115417,1588.203613 963.161011,1578.060547 
	C943.342468,1570.004883 926.133118,1557.941406 910.311890,1543.770996 
	C901.546631,1535.919922 892.490784,1528.305664 884.438416,1519.762451 
	C855.529785,1489.091797 824.878296,1460.159668 795.578125,1429.891113 
	C790.278259,1424.416138 785.129761,1418.764038 779.816101,1413.281982 
	C778.940186,1412.378418 777.239868,1411.609131 777.814697,1410.140991 
	C778.497742,1408.395996 780.411560,1409.025269 781.830627,1409.023682 
	C808.995361,1408.992920 836.160095,1408.970825 863.324707,1409.030029 
	C867.535645,1409.039185 870.964294,1407.864014 873.909607,1404.676636 
	C877.637329,1400.642578 877.129211,1396.290405 875.330200,1391.889648 
	C873.674561,1387.839722 870.488770,1385.951294 865.932861,1385.960571 
	C830.102173,1386.033813 794.271179,1385.946655 758.440796,1386.073730 
	C754.349792,1386.088257 751.385254,1385.092163 748.397888,1382.053589 
	C729.704834,1363.039795 710.517883,1344.508057 691.958130,1325.367065 
	C625.849487,1257.188354 558.104736,1190.639648 490.818787,1123.639526 
	C466.403503,1099.327881 442.026733,1074.959229 417.325317,1050.929199 
	C414.851349,1048.522583 413.928223,1046.079834 413.929993,1042.644043 
	C414.011108,886.488525 414.011902,730.332947 413.925720,574.177490 
	C413.923828,570.696045 415.042633,568.341675 417.452362,565.946472 
	C442.864899,540.687256 468.176788,515.326843 493.512970,489.990814 
	C499.488831,484.015045 499.907379,477.351501 494.650970,472.159851 
	C489.540405,467.112244 482.965790,467.538757 477.176300,473.325500 
	C457.845490,492.647034 438.529602,511.983490 419.182190,531.288452 
	C417.914001,532.553894 416.891327,534.170410 415.071075,534.734558 
	C413.761292,534.216309 414.042236,533.091125 414.026031,532.155823 
	C413.698090,513.207581 412.785461,494.278809 412.923279,475.311432 
	C413.187256,438.982605 413.054932,402.650360 412.980835,366.319763 
	C412.930695,341.744415 415.376770,317.459625 423.206055,294.105011 
	C432.714050,265.742798 450.655792,244.775024 479.284607,234.042007 
	C496.251160,227.681183 513.800964,224.545319 531.919983,223.944595 
	C596.192078,221.813751 660.477661,223.573288 724.754272,223.060455 
	C725.077576,223.057861 725.401978,223.192688 725.954407,223.313202 
	C725.976868,225.418121 724.154419,226.295578 722.988037,227.466507 
	C704.757751,245.767242 686.477295,264.017975 668.216919,282.288727 
	C662.505249,288.003601 662.155701,294.702881 667.270935,299.761658 
	C672.122803,304.559937 679.371338,304.125397 684.823059,298.675629 
	C708.985046,274.522400 733.170166,250.392014 757.246948,226.154160 
	C759.553345,223.832352 761.866699,222.928940 765.101196,222.938675 
	C798.431824,223.039017 831.766418,222.738937 865.091431,223.182114 
	C873.499207,223.293945 878.174866,217.096909 878.033264,211.460663 
	C877.853271,204.298599 873.036987,200.007263 864.745239,200.003891 
	C839.913696,199.993759 815.082092,200.010956 790.250610,199.973663 
	C788.660950,199.971283 786.321411,200.770630 785.644287,199.273987 
	C784.744751,197.285568 787.256897,196.311417 788.442322,195.123779 
	C830.353821,153.131424 872.077820,110.947487 914.374512,69.345932 
	C932.817017,51.206470 953.349060,35.673714 978.591614,27.724346 
	C1000.793640,20.732544 1022.332336,23.384062 1043.196533,32.701199 
	C1060.956909,40.632317 1076.575195,51.864429 1091.259399,64.601791 
	C1104.582886,76.158829 1117.402344,88.234344 1129.429810,101.073952 
	C1155.967041,129.403152 1184.133179,156.102005 1211.337891,183.759583 
	C1216.099731,188.600662 1220.383911,193.808334 1224.969238,198.899475 
	C1223.081299,200.738098 1220.981323,199.954865 1219.122314,199.958786 
	C1190.791138,200.018387 1162.459717,199.986893 1134.128418,200.012985 
	C1128.310303,200.018341 1124.264893,202.902649 1122.416626,208.154129 
	C1120.929077,212.380646 1122.772217,217.896729 1126.555420,221.045181 
	C1128.787964,222.903046 1131.330933,223.021622 1134.032715,223.019455 
	C1170.696777,222.990067 1207.360962,223.064713 1244.024414,222.907944 
	C1248.044067,222.890762 1250.766235,224.129456 1253.555420,226.943481 
	C1277.019165,250.615829 1300.963379,273.819611 1324.139282,297.767975 
	C1381.490112,357.030304 1440.440186,414.694977 1498.769775,472.976654 
	C1512.558105,486.753754 1526.498901,500.417694 1540.750000,514.250000 
z"/>
<path fill="#4C6971" opacity="1.000000" stroke="none" 
	d="
M644.000000,1386.000000 
	C610.008179,1386.000000 576.509277,1386.407715 543.027344,1385.831421 
	C525.760925,1385.534424 508.471344,1383.995972 491.700653,1379.061279 
	C475.857239,1374.399414 461.139648,1367.608765 448.899933,1356.328857 
	C434.491180,1343.050049 426.254974,1326.066772 421.104340,1307.510376 
	C417.044922,1292.885620 414.900360,1277.945801 413.870392,1262.746582 
	C412.134460,1237.130005 413.341248,1211.518311 413.064789,1185.908569 
	C412.775208,1159.084961 412.832214,1132.253906 413.105469,1105.429932 
	C413.184296,1097.691040 414.316956,1089.952393 413.988892,1082.163330 
	C416.239166,1081.819336 416.901154,1083.460815 417.868073,1084.417725 
	C455.386536,1121.546387 492.877808,1158.702637 530.359802,1195.868164 
	C537.340637,1202.790161 544.205200,1209.830322 551.238953,1216.697632 
	C556.460205,1221.795410 562.137939,1226.446167 567.149353,1231.734863 
	C598.192749,1264.495728 631.027222,1295.489136 662.268311,1328.036255 
	C679.791443,1346.291992 697.968994,1363.875488 715.548279,1382.059692 
	C716.458923,1383.001709 717.317871,1383.993530 719.147034,1386.000000 
	C693.541260,1386.000000 669.020630,1386.000000 644.000000,1386.000000 
z"/>
<path fill="#4C6971" opacity="1.000000" stroke="none" 
	d="
M1646.250000,618.750000 
	C1663.349609,635.849670 1679.985107,652.921143 1697.133423,669.461121 
	C1706.583496,678.576050 1716.360962,687.378418 1725.332764,696.956177 
	C1737.969238,710.446411 1750.212158,724.284668 1760.473877,739.778320 
	C1770.236694,754.518555 1777.494629,770.292786 1780.699219,787.680786 
	C1783.807373,804.545715 1780.659180,820.761963 1774.216309,836.475342 
	C1766.785522,854.597961 1755.524658,870.162354 1742.183228,884.277588 
	C1700.761719,928.101868 1657.128906,969.736328 1614.809937,1012.672852 
	C1613.912720,1013.583130 1612.886108,1014.365723 1611.651855,1015.441406 
	C1609.064453,872.062866 1609.911743,729.143494 1611.435303,585.507080 
	C1624.309326,595.419922 1634.543701,607.617004 1646.250000,618.750000 
z"/>
<path fill="#4C6971" opacity="1.000000" stroke="none" 
	d="
M335.250000,969.750000 
	C323.452606,957.952759 312.128540,946.169739 300.275909,934.944763 
	C292.918243,927.976929 285.313446,921.245667 278.424774,913.825195 
	C265.284515,899.670532 252.150497,885.499756 241.541458,869.214478 
	C231.912567,854.433777 224.431763,838.752930 221.287338,821.324768 
	C218.242111,804.446350 221.389862,788.259888 227.769958,772.522034 
	C235.139114,754.344360 246.489029,738.843018 259.819519,724.729858 
	C301.226501,680.891785 344.868927,639.266052 387.187897,596.329285 
	C388.085419,595.418640 389.111908,594.635132 390.373322,593.534851 
	C392.837463,736.935913 392.187042,879.855042 390.534180,1023.566711 
	C370.900848,1006.658691 353.752838,987.751404 335.250000,969.750000 
z"/>
<path fill="#4C6971" opacity="1.000000" stroke="none" 
	d="
M1354.250000,295.750000 
	C1331.277222,271.002777 1307.072510,247.952805 1283.592407,223.969559 
	C1285.519165,222.389099 1287.407959,223.035477 1289.115723,223.034241 
	C1346.091919,222.993057 1403.072144,222.607605 1460.042480,223.184875 
	C1484.316162,223.430847 1508.454102,226.591263 1530.698730,237.443954 
	C1546.425781,245.116913 1559.301147,256.197571 1568.253418,271.552155 
	C1578.292358,288.770325 1583.381836,307.457672 1586.142578,327.059540 
	C1588.321289,342.529022 1589.074219,358.002045 1589.036011,373.586121 
	C1588.931396,416.401337 1589.119507,459.217590 1588.895874,502.031891 
	C1588.852783,510.275330 1587.682617,518.523499 1588.029541,526.800720 
	C1585.778076,527.238037 1585.124634,525.563049 1584.163330,524.612610 
	C1549.594971,490.436920 1515.041748,456.245972 1480.530762,422.012360 
	C1466.574219,408.168060 1452.720337,394.220367 1438.819702,380.319702 
	C1410.713135,352.213165 1382.606567,324.106598 1354.250000,295.750000 
z"/>
<path fill="#000000" opacity="1.000000" stroke="none" 
	d="
M1375.118164,475.760376 
	C1371.218262,482.766937 1367.495850,489.546722 1363.894531,496.390137 
	C1348.973389,524.742920 1334.089722,553.115417 1319.190430,581.479614 
	C1309.747803,599.455811 1300.321167,617.440491 1290.852539,635.402954 
	C1277.685669,660.381104 1264.476196,685.336914 1251.303833,710.312256 
	C1241.831177,728.273193 1232.406494,746.259460 1222.929077,764.217896 
	C1210.059204,788.604736 1197.145020,812.968201 1184.277344,837.356140 
	C1174.801636,855.315247 1165.383301,873.304565 1155.915161,891.267639 
	C1142.749390,916.246033 1129.572021,941.218506 1116.376465,966.181152 
	C1111.518311,975.371521 1106.509277,984.483398 1101.757202,993.727783 
	C1100.521118,996.132324 1099.072510,997.084167 1096.357056,997.052429 
	C1085.026367,996.919556 1073.692749,996.930237 1062.361694,997.045654 
	C1059.823608,997.071472 1058.509155,996.097107 1057.382080,993.899902 
	C1048.637451,976.852600 1039.832153,959.836060 1030.944824,942.862671 
	C1016.697021,915.651306 1002.379578,888.476379 988.076538,861.294006 
	C978.466003,843.029602 968.809082,824.789429 959.209106,806.519470 
	C944.845642,779.183655 930.515259,751.830505 916.168213,724.486023 
	C906.426575,705.919250 896.685425,687.352234 886.935547,668.789734 
	C872.344727,641.010803 857.742554,613.237793 843.152832,585.458313 
	C833.326660,566.748901 823.522827,548.027832 813.692749,529.320496 
	C799.559021,502.422791 785.440186,475.517212 771.256287,448.645966 
	C763.628662,434.195374 755.897461,419.799286 748.166748,405.403442 
	C746.815002,402.886230 747.263367,401.944916 750.252747,401.969055 
	C761.750793,402.061951 773.250732,402.071136 784.748230,401.950989 
	C786.958130,401.927887 787.997925,402.878571 788.909851,404.638763 
	C796.583008,419.449188 804.269409,434.252960 812.016357,449.024902 
	C826.281982,476.226715 840.588623,503.407013 854.883789,530.593323 
	C864.257446,548.419983 873.644897,566.239380 883.018921,584.065796 
	C897.314819,611.251953 911.601929,638.442627 925.897339,665.629028 
	C935.271057,683.455566 944.656250,701.276062 954.029968,719.102600 
	C968.325562,746.288879 982.612915,773.479553 996.908813,800.665588 
	C1006.591125,819.078247 1016.286499,837.483948 1025.968506,855.896790 
	C1039.955566,882.496948 1053.938599,909.099304 1067.916992,935.704041 
	C1071.064697,941.695129 1074.144043,947.722778 1077.353638,953.680420 
	C1078.005615,954.890564 1078.202393,956.869202 1080.175537,956.719238 
	C1081.749756,956.599670 1082.005493,954.928467 1082.588013,953.809814 
	C1091.437378,936.816650 1100.190796,919.773254 1109.074707,902.798157 
	C1123.624268,874.997620 1138.256226,847.240295 1152.845703,819.460632 
	C1162.594604,800.897827 1172.323120,782.324341 1182.073242,763.762146 
	C1196.664551,735.983398 1211.262207,708.207825 1225.866089,680.435608 
	C1235.548462,662.022766 1245.263306,643.626953 1254.934204,625.208008 
	C1269.596680,597.281738 1284.223877,569.336853 1298.885132,541.409912 
	C1308.554932,522.990662 1318.274048,504.597198 1327.943237,486.177612 
	C1342.141724,459.129822 1356.343994,432.083923 1370.446655,404.986176 
	C1371.624634,402.722717 1373.033203,401.940033 1375.493042,401.961517 
	C1386.657715,402.059113 1397.824707,402.083130 1408.988647,401.952515 
	C1411.960938,401.917786 1413.373901,402.777252 1413.019775,405.902039 
	C1412.870483,407.218109 1412.999756,408.565552 1412.999756,409.898743 
	C1413.000000,673.038147 1413.000000,936.177612 1412.999390,1199.317017 
	C1412.999390,1200.816895 1412.906372,1202.322021 1413.002930,1203.815308 
	C1413.156128,1206.187744 1412.102173,1207.031128 1409.773193,1207.014526 
	C1399.941406,1206.944336 1390.108643,1206.946777 1380.276855,1207.014160 
	C1377.993652,1207.029663 1376.854614,1206.285767 1376.994751,1203.865112 
	C1377.100708,1202.038452 1377.000732,1200.200317 1377.000732,1198.367188 
	C1377.000000,960.391785 1377.000122,722.416443 1376.998047,484.441071 
	C1376.998047,481.937744 1376.968506,479.434387 1376.893066,476.465759 
	C1376.449951,475.480011 1376.022827,475.107300 1375.118164,475.760376 
z"/>
<path fill="#000000" opacity="1.000000" stroke="none" 
	d="
M625.356445,475.761139 
	C625.111084,478.497253 625.006958,480.994049 625.006897,483.490875 
	C624.999512,721.784363 625.000061,960.077881 624.999329,1198.371338 
	C624.999329,1200.204346 624.899048,1202.042480 625.005005,1203.869019 
	C625.145569,1206.292969 623.999329,1207.029663 621.719666,1207.014160 
	C611.888489,1206.947021 602.056274,1206.944092 592.225220,1207.014526 
	C589.894897,1207.031128 588.836243,1206.184326 588.998779,1203.813843 
	C589.089783,1202.487305 589.000793,1201.148926 589.000793,1199.815796 
	C589.000122,936.193237 588.997314,672.570679 589.013794,408.948120 
	C589.014282,401.144989 588.152161,402.058167 595.960327,402.013458 
	C605.625061,401.958130 615.292542,402.118378 624.954163,401.936859 
	C628.258911,401.874786 630.078064,403.147369 631.555420,406.003113 
	C643.316345,428.737579 655.146912,451.436401 667.044922,474.099518 
	C680.245605,499.244019 693.551758,524.333130 706.789734,549.458069 
	C716.254272,567.421265 725.662903,585.413818 735.130798,603.375183 
	C748.296753,628.351929 761.504761,653.306335 774.675598,678.280457 
	C784.224487,696.387024 793.732300,714.515259 803.276611,732.624268 
	C816.363464,757.454712 829.474854,782.272217 842.562195,807.102417 
	C855.494568,831.638428 868.402100,856.187378 881.335083,880.723022 
	C894.423096,905.552795 907.512756,930.381653 920.633179,955.194275 
	C927.422913,968.034668 934.238464,980.862000 941.145630,993.639282 
	C942.462341,996.074890 941.941467,996.982788 939.299438,996.982483 
	C927.634827,996.981079 915.969910,996.941040 904.305725,997.013794 
	C901.957458,997.028503 901.255066,995.470276 900.384705,993.836853 
	C895.418274,984.516663 890.351562,975.249329 885.452881,965.893799 
	C873.502869,943.071228 861.674866,920.184814 849.707153,897.371704 
	C836.667969,872.516296 823.526306,847.714600 810.429810,822.889282 
	C797.796753,798.942566 785.160828,774.997375 772.532410,751.048279 
	C759.518188,726.367493 746.515198,701.680847 733.500244,677.000488 
	C720.871155,653.051880 708.233826,629.107544 695.598877,605.162048 
	C682.500427,580.337952 669.395386,555.517273 656.303162,530.689941 
	C646.754700,512.582886 637.222290,494.467316 627.398804,476.156738 
	C626.654846,475.586639 626.226807,475.100220 625.356445,475.761139 
z"/>
<path fill="#000000" opacity="1.000000" stroke="none" 
	d="
M811.693787,597.377197 
	C827.864441,628.287476 843.819946,658.890503 859.813171,689.473877 
	C869.528198,708.051575 879.288757,726.605469 889.051880,745.157898 
	C902.584351,770.873047 916.151062,796.570007 929.678955,822.287598 
	C939.823730,841.573608 949.912720,860.888977 960.058167,880.174622 
	C973.587036,905.891724 987.148438,931.591736 1000.692139,957.301025 
	C1006.923828,969.130249 1013.054565,981.014099 1019.428040,992.766357 
	C1021.418823,996.437256 1020.404724,997.110901 1016.673950,997.055420 
	C1005.845520,996.894409 995.012329,996.921509 984.183105,997.052856 
	C981.541077,997.084900 980.136353,996.317932 978.862610,993.849182 
	C967.883972,972.571533 956.740845,951.378601 945.604065,930.182800 
	C932.242493,904.752380 918.833740,879.346680 905.455261,853.925110 
	C895.537476,835.079651 885.639160,816.223999 875.725891,797.376221 
	C861.968262,771.219482 848.202087,745.067200 834.444580,718.910400 
	C824.531372,700.062500 814.637451,681.204529 804.714722,662.361755 
	C791.252014,636.796753 777.757690,611.248352 764.300293,585.680603 
	C754.458801,566.982788 744.668274,548.258057 734.831116,529.557983 
	C720.994507,503.255127 707.153687,476.954468 693.279419,450.671478 
	C685.499268,435.932953 677.738403,421.182709 669.765381,406.548615 
	C667.776917,402.898834 668.063232,401.832764 672.455933,401.927917 
	C682.948547,402.155212 693.454529,402.187531 703.944214,401.901001 
	C707.701721,401.798401 709.597778,403.296814 711.186157,406.383362 
	C714.661987,413.137726 718.154236,419.885773 721.731628,426.590363 
	C734.168640,449.899353 746.170349,473.440125 758.422852,496.848114 
	C771.667786,522.151917 784.985901,547.417419 798.320129,572.674255 
	C802.633606,580.844604 807.098755,588.934875 811.693787,597.377197 
z"/>
<path fill="#000000" opacity="1.000000" stroke="none" 
	d="
M1307.000000,767.000000 
	C1307.000000,728.841919 1307.142578,691.182678 1306.851807,653.526855 
	C1306.806396,647.638123 1308.927246,642.928955 1311.449829,638.120728 
	C1321.112549,619.701965 1330.847656,601.321106 1340.564209,582.930481 
	C1340.933716,582.231079 1341.390381,581.577820 1342.068237,580.478455 
	C1343.580566,582.769775 1342.970215,584.938782 1342.970581,586.927734 
	C1343.002563,742.725586 1343.000122,898.523438 1343.000000,1054.321289 
	C1343.000000,1103.310181 1342.939453,1152.299194 1343.099243,1201.287476 
	C1343.114136,1205.847534 1341.912598,1207.296143 1337.299683,1207.103394 
	C1328.650146,1206.741821 1319.972656,1206.890381 1311.311035,1207.052979 
	C1308.179810,1207.111572 1306.587280,1206.300903 1306.972046,1202.897461 
	C1307.158081,1201.252441 1307.000122,1199.568604 1307.000122,1197.902344 
	C1307.000000,1054.434937 1307.000000,910.967468 1307.000000,767.000000 
z"/>
<path fill="#000000" opacity="1.000000" stroke="none" 
	d="
M695.000000,856.000000 
	C694.999939,970.974182 695.006104,1085.448364 694.986511,1199.922485 
	C694.985168,1207.819580 695.842712,1206.941284 688.169739,1206.988159 
	C679.838562,1207.038940 671.503845,1206.865723 663.176941,1207.060913 
	C659.867981,1207.138428 658.594788,1205.997192 658.981689,1202.763794 
	C659.119263,1201.614014 659.000122,1200.433716 659.000122,1199.267334 
	C658.999939,996.979614 658.998230,794.691956 659.024902,592.404236 
	C659.025208,590.312744 658.554443,588.145874 659.783997,585.344666 
	C661.448669,588.056213 662.985352,590.253967 664.215576,592.611633 
	C673.843506,611.064087 683.380432,629.564026 693.035156,648.002380 
	C694.467285,650.737488 695.045227,653.468506 695.042664,656.545654 
	C694.986389,722.863708 694.999939,789.181885 695.000000,856.000000 
z"/>
<path fill="#000000" opacity="1.000000" stroke="none" 
	d="
M1315.999268,437.002197 
	C1304.480469,459.154877 1293.098022,480.964539 1281.647949,502.738739 
	C1268.586914,527.576233 1255.452148,552.375000 1242.375366,577.204285 
	C1232.530396,595.897217 1222.747559,614.622803 1212.899536,633.314087 
	C1199.741333,658.288391 1186.537598,683.238770 1173.370605,708.208557 
	C1163.824463,726.311829 1154.312988,744.433472 1144.774414,762.540771 
	C1131.310059,788.100769 1117.830688,813.652893 1104.365723,839.212585 
	C1094.826904,857.319641 1085.317139,875.441895 1075.733765,893.525330 
	C1075.091064,894.738037 1074.888062,896.828613 1073.002075,896.625488 
	C1071.638428,896.478638 1071.480713,894.692810 1070.864502,893.574646 
	C1065.371582,883.608887 1059.880127,873.642151 1054.337524,863.704102 
	C1053.220337,861.700745 1052.857422,859.935547 1054.043945,857.701904 
	C1067.364380,832.625549 1080.600952,807.504639 1093.838623,782.384338 
	C1097.763672,774.935974 1101.615234,767.448792 1105.512329,759.985596 
	C1117.588135,736.859741 1129.650635,713.726868 1141.755127,690.615906 
	C1151.480957,672.046387 1161.258545,653.503845 1171.016113,634.950928 
	C1184.925171,608.504578 1198.843384,582.062927 1212.745728,555.612976 
	C1222.575317,536.911865 1232.368286,518.191589 1242.207153,499.495422 
	C1255.661133,473.930023 1269.145264,448.380524 1282.611938,422.821686 
	C1285.766602,416.834198 1288.969116,410.870148 1292.009521,404.824890 
	C1293.011597,402.832489 1294.195190,401.926361 1296.545288,401.951202 
	C1307.873169,402.070923 1319.203857,402.083435 1330.531738,401.957397 
	C1333.886963,401.920074 1334.164062,403.000641 1332.721924,405.661987 
	C1327.138794,415.965088 1321.637573,426.312592 1315.999268,437.002197 
z"/>
<path fill="#000000" opacity="1.000000" stroke="none" 
	d="
M1273.000000,790.000000 
	C1273.000000,926.960938 1273.005737,1063.421875 1272.985107,1199.882812 
	C1272.983887,1207.938721 1273.897827,1206.931519 1265.710449,1206.986938 
	C1257.380005,1207.043457 1249.047485,1206.912231 1240.718506,1207.039795 
	C1237.922729,1207.082642 1236.732056,1206.137207 1236.980347,1203.306763 
	C1237.125488,1201.653564 1237.000244,1199.976685 1237.000244,1198.310547 
	C1236.999878,1063.515869 1237.143433,928.720642 1236.738525,793.927124 
	C1236.704712,782.667175 1239.892090,773.285278 1245.017090,763.923096 
	C1249.769897,755.240601 1254.399536,746.490601 1259.067871,737.761963 
	C1263.324951,729.802490 1267.560913,721.831787 1273.000000,714.002869 
	C1273.000000,739.168579 1273.000000,764.334290 1273.000000,790.000000 
z"/>
<path fill="#000000" opacity="1.000000" stroke="none" 
	d="
M1198.306152,509.377197 
	C1181.120239,541.977722 1164.159546,574.276367 1147.137817,606.542908 
	C1135.818970,627.999023 1124.408203,649.406677 1113.047363,670.840698 
	C1098.052490,699.130920 1083.064453,727.424866 1068.076538,755.718872 
	C1059.579468,771.759460 1051.105591,787.812378 1042.586060,803.841003 
	C1039.576294,809.503540 1036.461670,815.110413 1033.205566,821.090637 
	C1029.076294,816.238098 1026.923096,810.519409 1023.826111,805.397278 
	C1020.073792,799.191345 1016.768860,792.716431 1013.129272,786.439758 
	C1011.939270,784.387634 1012.510132,782.810242 1013.491699,780.963562 
	C1020.232605,768.282410 1026.885376,755.554504 1033.592529,742.855286 
	C1049.318115,713.081177 1065.054688,683.312927 1080.793823,653.545959 
	C1092.287109,631.809265 1103.783325,610.074036 1115.293701,588.346375 
	C1127.424561,565.447510 1139.581299,542.562378 1151.713013,519.663940 
	C1163.224243,497.936707 1174.707397,476.194641 1186.221924,454.469208 
	C1194.955322,437.990936 1203.761841,421.551208 1212.417114,405.032074 
	C1213.583374,402.806274 1214.942383,401.934723 1217.436523,401.958038 
	C1228.764526,402.064087 1240.094971,402.067261 1251.423096,401.963013 
	C1254.471313,401.934967 1255.360352,402.586243 1253.758667,405.561035 
	C1245.464600,420.963501 1237.231689,436.399323 1229.051880,451.862885 
	C1219.250366,470.392090 1209.527222,488.962799 1199.750366,507.505096 
	C1199.446045,508.082275 1198.925293,508.545410 1198.306152,509.377197 
z"/>
<path fill="#000000" opacity="1.000000" stroke="none" 
	d="
M765.000000,1123.000000 
	C764.999573,1149.662598 764.929016,1175.825562 765.075806,1201.987305 
	C765.097290,1205.818848 764.154663,1207.228271 760.099915,1207.090942 
	C751.278076,1206.791992 742.433228,1206.808960 733.609924,1207.084961 
	C729.725586,1207.206421 728.492249,1205.793457 728.981323,1202.195068 
	C729.114685,1201.213379 729.000122,1200.198242 729.000122,1199.198364 
	C729.000000,1041.223022 729.000000,883.247620 729.000000,725.272278 
	C729.000000,723.198608 729.000000,721.124939 729.000000,719.051270 
	C729.363220,718.982300 729.726501,718.913330 730.089722,718.844360 
	C732.392517,722.906494 734.789795,726.918396 736.981506,731.039551 
	C746.051147,748.093750 755.032715,765.194885 764.120483,782.239380 
	C765.313538,784.476990 764.978882,786.767822 764.979370,789.051758 
	C765.002869,900.201172 765.000000,1011.350586 765.000000,1123.000000 
z"/>
<path fill="#000000" opacity="1.000000" stroke="none" 
	d="
M1179.023193,1207.000000 
	C1167.000000,1207.000000 1167.000000,1207.000000 1167.000000,1195.621704 
	C1167.000000,1103.639648 1167.017578,1011.657715 1166.945801,919.675781 
	C1166.942383,915.254211 1167.824707,911.473022 1170.029053,907.495972 
	C1177.712158,893.635071 1184.841309,879.467957 1192.244507,865.450806 
	C1195.365356,859.541809 1198.644531,853.716492 1202.740967,847.978088 
	C1202.827393,849.700256 1202.989136,851.422485 1202.989380,853.144653 
	C1203.001099,968.955322 1203.000488,1084.765991 1202.998413,1200.576660 
	C1202.998291,1206.989624 1202.988770,1206.993042 1196.515137,1206.998779 
	C1190.849487,1207.003784 1185.183960,1206.999878 1179.023193,1207.000000 
z"/>
<path fill="#000000" opacity="1.000000" stroke="none" 
	d="
M835.000000,996.000000 
	C835.000000,1064.485596 835.000793,1132.471313 834.998657,1200.456909 
	C834.998474,1206.988159 834.990112,1206.994141 828.634949,1206.998291 
	C820.303345,1207.003784 811.965515,1206.808594 803.643005,1207.082886 
	C799.806763,1207.209351 798.810547,1205.880371 798.925781,1202.228882 
	C799.172729,1194.405029 799.000061,1186.567993 799.000061,1178.736328 
	C798.999939,1071.925537 798.996155,965.114746 799.028809,858.303955 
	C799.029419,856.236206 798.490662,854.066223 799.862976,851.384155 
	C802.458740,856.040283 804.877136,860.216797 807.144592,864.473816 
	C816.147278,881.376404 825.079834,898.316528 834.107971,915.205505 
	C835.127014,917.111938 834.989075,919.046936 834.990173,921.015503 
	C835.004578,945.843689 834.999817,970.671814 835.000000,996.000000 
z"/>
<path fill="#4C6971" opacity="1.000000" stroke="none" 
	d="
M625.491333,475.993347 
	C625.169861,475.175690 624.556213,474.003082 625.685730,473.712524 
	C626.396912,473.529572 626.887390,474.501740 627.056396,475.644409 
	C626.681946,475.967346 626.248962,475.976837 625.491333,475.993347 
z"/>
<path fill="#4C6971" opacity="1.000000" stroke="none" 
	d="
M1375.209961,475.965088 
	C1375.052979,475.053772 1375.076782,473.871643 1376.178345,473.745850 
	C1377.397217,473.606720 1376.723389,474.793671 1376.888184,475.685944 
	C1376.400513,475.991089 1375.967529,475.981659 1375.209961,475.965088 
z"/>
</svg>