<svg version="1.1" id="Layer_1" xmlns="http://www.w3.org/2000/svg"
	xmlns:xlink="http://www.w3.org/1999/xlink" x="0px" y="0px"
	width="100%" viewBox="0 0 1005 1010" enable-background="new 0 0 1005 1010" xml:space="preserve">
<path fill="#111111" opacity="1.000000" stroke="none" 
	d="
M1.000000,358.000000 
	C1.000000,240.000015 1.019172,122.500015 0.904781,5.000134 
	C0.901448,1.576287 1.576463,0.904972 4.999986,0.906010 
	C337.333252,1.006815 669.666504,1.006812 1001.999817,0.906040 
	C1005.422852,0.905002 1006.095032,1.576073 1006.093994,4.999866 
	C1005.993225,338.999786 1005.993225,672.999756 1006.093933,1006.999695 
	C1006.094971,1010.422424 1005.424316,1011.095032 1002.000305,1011.093994 
	C669.666992,1010.993164 337.333710,1010.993225 5.000431,1011.093933 
	C1.577911,1011.094971 0.903930,1010.424805 0.905592,1007.000366 
	C1.010463,790.833618 1.000000,574.666809 1.000000,358.000000 
z"/>
<path fill="#FBFBFB" opacity="1.000000" stroke="none" 
	d="
M883.765625,235.035889 
	C883.528992,271.195190 883.381775,306.861298 882.935242,342.523651 
	C882.877747,347.117462 884.326599,350.150574 887.514343,353.292084 
	C915.050720,380.429596 942.537109,407.620239 969.786865,435.044952 
	C979.195435,444.513885 987.063416,455.282898 993.421936,467.105560 
	C1007.923340,494.068573 1006.507446,520.320618 990.198486,546.022339 
	C983.368347,556.786011 974.917725,566.172363 965.947754,575.140869 
	C939.312866,601.771667 912.708557,628.433228 885.999695,654.989746 
	C883.802856,657.174133 882.927307,659.300171 882.956116,662.392212 
	C883.304810,699.722961 883.611450,737.054871 883.711731,774.386963 
	C883.755188,790.566345 882.446594,806.623779 878.163879,822.356873 
	C868.876770,856.474670 845.842651,874.612183 811.698608,879.942078 
	C802.135254,881.434998 792.495056,881.961792 782.810425,881.950989 
	C743.144043,881.906738 703.477539,881.964844 663.811340,881.875061 
	C660.601074,881.867798 658.313293,882.708435 655.974609,885.048035 
	C624.874329,916.159790 593.691284,947.189026 562.433044,978.142151 
	C556.505310,984.011963 549.691833,988.838684 542.616211,993.273010 
	C516.913269,1009.381287 490.751282,1010.172852 464.119080,995.675964 
	C448.296661,987.063171 434.965942,975.297241 422.392944,962.591675 
	C396.722046,936.650146 371.054932,910.704651 345.475281,884.673279 
	C343.415863,882.577393 341.361816,881.872375 338.503723,881.877075 
	C298.337616,881.943542 258.171021,881.981323 218.005264,881.835754 
	C205.314438,881.789795 192.740189,880.278076 180.530334,876.610901 
	C149.691605,867.348694 133.345245,845.473083 126.970390,814.923340 
	C123.302216,797.344543 123.106400,779.545776 123.268959,761.701782 
	C123.552887,730.537354 123.661057,699.371033 124.046440,668.208008 
	C124.092087,664.517334 122.914322,662.088135 120.363960,659.582947 
	C94.921806,634.591919 69.526375,609.552368 44.254982,584.388672 
	C31.225010,571.414307 19.458351,557.421204 11.439596,540.655273 
	C0.026792,516.792969 1.059971,493.400543 14.090476,470.453735 
	C21.062946,458.175140 30.237865,447.662018 40.164616,437.739624 
	C67.040306,410.875732 93.878944,383.974609 120.822800,357.179321 
	C123.130577,354.884277 124.071053,352.611572 124.039619,349.355072 
	C123.687386,312.857849 123.429405,276.359528 123.258636,239.860962 
	C123.180565,223.174103 124.193474,206.575592 128.647568,190.371536 
	C137.964828,156.475250 160.710648,136.663345 195.530899,131.978943 
	C205.291428,130.665863 215.074036,130.033676 224.923141,130.046509 
	C263.756165,130.097092 302.589600,129.991425 341.421875,130.165070 
	C345.924164,130.185211 349.087036,129.007278 352.298065,125.764320 
	C379.737701,98.051544 407.365051,70.524597 434.938171,42.944012 
	C443.433105,34.446800 452.353760,26.473341 462.467072,19.890806 
	C489.818878,2.088100 517.521667,1.441741 545.699097,17.890022 
	C560.067200,26.277258 572.428894,37.125465 584.064026,48.867035 
	C609.870483,74.909660 635.659851,100.969627 661.345947,127.130699 
	C663.546265,129.371674 665.703613,130.129135 668.737061,130.122345 
	C707.403259,130.035767 746.069763,130.063019 784.736145,130.069611 
	C797.603149,130.071793 810.366882,131.134659 822.859253,134.356216 
	C853.416992,142.236481 871.465698,162.256973 878.967651,192.443924 
	C882.403442,206.269073 883.356873,220.373184 883.765625,235.035889 
z"/>
<path fill="#121212" opacity="1.000000" stroke="none" 
	d="
M657.145691,864.286499 
	C654.859985,867.356567 652.169006,868.067749 648.714417,868.042358 
	C627.217163,867.884399 605.718018,867.958557 584.219543,867.978882 
	C578.451965,867.984314 575.097961,870.545776 575.088501,874.844727 
	C575.079041,879.176147 578.458557,881.861389 584.137329,881.872009 
	C600.636169,881.902954 617.135132,881.884277 633.634033,881.885071 
	C635.230957,881.885132 636.827881,881.885071 639.673828,881.885071 
	C635.801086,885.706177 632.763550,888.669250 629.762817,891.669189 
	C607.252808,914.174011 584.748535,936.684570 562.245972,959.196838 
	C554.104065,967.342346 545.520996,974.934875 535.766235,981.154297 
	C513.906067,995.091980 491.800873,995.556335 469.322784,982.703247 
	C456.190399,975.193970 444.869080,965.416626 434.278198,954.758362 
	C410.904388,931.236206 387.626160,907.619019 364.312653,884.036926 
	C363.880188,883.599487 363.494110,883.116211 362.405945,881.883179 
	C364.803253,881.883179 366.369659,881.883240 367.936066,881.883179 
	C384.268311,881.882690 400.600616,881.906128 416.932770,881.868286 
	C422.536560,881.855286 425.960327,879.000549 425.817841,874.655579 
	C425.682739,870.534119 422.388672,867.977844 416.988129,867.970764 
	C395.322968,867.942505 373.657562,867.912598 351.992798,868.005615 
	C349.472473,868.016418 347.684814,867.353333 345.894196,865.540649 
	C277.851074,796.660522 209.332474,728.255310 140.505707,660.158875 
	C138.577530,658.251221 137.820068,656.344666 137.822144,653.643860 
	C137.896179,556.984070 137.906540,460.324249 137.855286,363.664459 
	C137.853775,360.803711 138.617538,358.777863 140.708115,356.714447 
	C155.770706,341.847321 170.684052,326.829041 185.644791,311.858734 
	C185.998138,311.505157 186.354996,311.155090 186.704987,310.798248 
	C190.745697,306.678467 191.344604,302.548004 188.347870,299.477600 
	C185.066177,296.115204 181.202255,296.661591 176.694641,301.167725 
	C165.145279,312.713287 153.584549,324.247772 142.100281,335.857788 
	C140.983963,336.986328 140.367569,338.609406 139.424667,340.157959 
	C137.286255,337.731689 137.786346,336.349670 137.776169,335.115143 
	C137.515213,303.451843 137.219681,271.788483 137.104156,240.124496 
	C137.048187,224.785736 138.036438,209.555283 141.796402,194.551117 
	C148.886108,166.259644 167.339493,150.804810 195.537567,146.043701 
	C203.928757,144.626892 212.380188,143.967545 220.901825,143.976776 
	C257.065979,144.015945 293.230194,143.980362 329.394379,143.972107 
	C330.497589,143.971863 331.600769,143.972076 333.434143,145.089935 
	C326.337067,151.979370 319.213013,158.841309 312.151947,165.767456 
	C307.036407,170.785263 301.957703,175.842621 296.950623,180.968353 
	C293.320404,184.684631 293.038879,188.516739 295.965118,191.524399 
	C299.071472,194.717194 303.006470,194.473129 306.896027,190.601883 
	C321.070343,176.494507 335.288818,162.428574 349.251282,148.113556 
	C352.311066,144.976486 355.367950,143.866348 359.660858,143.913025 
	C379.157227,144.125031 398.657318,143.978790 418.155884,144.022720 
	C421.788361,144.030899 424.747559,143.117035 426.169617,139.428650 
	C428.079041,134.476105 424.673981,130.129288 418.591858,130.092422 
	C403.760132,130.002502 388.927490,130.064728 374.095215,130.065643 
	C372.286682,130.065750 370.478180,130.065659 368.661102,130.065659 
	C368.293915,128.369537 369.656128,127.918953 370.365875,127.208130 
	C396.742340,100.791550 423.060791,74.315811 449.607941,48.071465 
	C461.294830,36.517868 474.286774,26.720541 490.412415,22.025797 
	C505.055084,17.762796 519.037415,20.046637 532.542725,26.570101 
	C544.353088,32.274841 554.777161,40.020355 564.170349,49.035603 
	C591.104004,74.885513 616.862244,101.914139 643.164001,128.398438 
	C643.461487,128.697998 643.626587,129.129074 644.201721,130.065979 
	C632.111938,130.065979 620.524719,130.065460 608.937500,130.066177 
	C601.937988,130.066620 594.938293,130.041214 587.938965,130.079269 
	C582.305847,130.109909 578.937683,132.871552 579.078857,137.243698 
	C579.214417,141.440521 582.440918,143.990341 587.835205,143.996185 
	C610.167053,144.020401 632.499023,144.050552 654.830444,143.949295 
	C657.535828,143.937012 659.426453,144.721741 661.330994,146.646896 
	C729.306030,215.358398 797.687622,283.664032 866.393250,351.644623 
	C868.492126,353.721283 869.173706,355.784607 869.171570,358.633942 
	C869.098633,455.126862 869.082458,551.619812 869.164673,648.112671 
	C869.167358,651.234009 868.212769,653.325439 866.053162,655.466187 
	C849.366028,672.008545 832.812134,688.685242 816.159241,705.262268 
	C813.074219,708.333130 811.728455,711.568909 814.434387,715.430603 
	C817.028381,719.132568 821.796448,719.154724 825.663574,715.352722 
	C834.575867,706.590698 843.377869,697.716248 852.199463,688.862488 
	C857.552551,683.489868 862.858765,678.070496 868.185974,672.672058 
	C868.611267,672.825806 869.036560,672.979614 869.461853,673.133362 
	C869.461853,683.539062 869.436890,693.944763 869.466736,704.350403 
	C869.541748,730.513123 869.851624,756.677490 869.635437,782.837708 
	C869.539246,794.478760 868.208191,806.064575 865.142639,817.404663 
	C857.406982,846.020630 839.725403,861.766479 810.402954,866.050476 
	C801.978943,867.281128 793.537781,867.999023 785.023865,867.994751 
	C749.359619,867.976624 713.695435,867.991760 678.031189,867.994751 
	C676.756592,867.994812 675.482056,867.994812 672.703430,867.994812 
	C682.996460,857.822693 692.291870,848.641785 701.580017,839.453491 
	C703.949341,837.109741 706.358154,834.801453 708.637939,832.372803 
	C712.076233,828.709900 712.291931,824.683716 709.336609,821.781067 
	C706.387756,818.884766 702.323914,819.145813 698.780518,822.672119 
	C684.959534,836.426208 671.187256,850.229248 657.145691,864.286499 
z"/>
<path fill="#121212" opacity="1.000000" stroke="none" 
	d="
M137.574158,700.998779 
	C137.578934,693.060669 137.578934,685.622559 137.578934,676.805237 
	C202.415161,740.259277 265.574188,803.387085 328.045502,867.181946 
	C327.104889,868.471680 326.012177,867.967285 325.112305,867.967834 
	C289.447571,867.989807 253.782715,868.005981 218.118027,867.943787 
	C208.432907,867.926880 198.832565,866.833679 189.394699,864.642822 
	C162.311081,858.356079 146.890823,840.858582 140.995544,814.185059 
	C137.848068,799.944153 137.064285,785.501099 137.111298,770.993469 
	C137.186356,747.828369 137.409088,724.663635 137.574158,700.998779 
z"/>
<path fill="#121212" opacity="1.000000" stroke="none" 
	d="
M720.000000,144.006348 
	C743.828674,144.021271 767.158264,143.915329 790.485596,144.099716 
	C803.019775,144.198792 815.396790,145.890152 827.232727,150.219162 
	C849.341675,158.305466 860.818359,175.254700 865.915894,197.354019 
	C869.040894,210.902054 869.932434,224.693237 869.883484,238.533325 
	C869.774353,269.359375 869.479187,300.184784 869.232971,331.010254 
	C869.225586,331.932587 869.632141,332.983612 868.404297,334.132690 
	C804.608032,271.648193 741.416443,208.578003 678.245300,144.006348 
	C692.663452,144.006348 706.081726,144.006348 720.000000,144.006348 
z"/>
<path fill="#121212" opacity="1.000000" stroke="none" 
	d="
M882.111633,506.999939 
	C882.110901,460.765930 882.110901,415.031891 882.110901,369.297882 
	C882.943481,368.910370 883.776123,368.522888 884.608704,368.135406 
	C891.746094,375.720093 898.763306,383.422272 906.043823,390.866974 
	C925.839905,411.109528 946.990295,430.021301 965.705933,451.322357 
	C973.200623,459.852386 979.507690,469.213165 984.147400,479.658813 
	C992.044373,497.438141 991.250000,514.833435 982.272644,531.997070 
	C977.686646,540.764893 972.122986,548.909729 965.149414,555.845276 
	C937.879578,582.966248 910.377014,609.853271 883.023438,636.765869 
	C882.723511,594.210815 882.417908,550.855408 882.111633,506.999939 
z"/>
<path fill="#121212" opacity="1.000000" stroke="none" 
	d="
M40.807747,560.167480 
	C34.660072,552.679688 29.281879,545.112244 24.955757,536.802551 
	C14.313897,516.361572 15.008226,496.284943 26.606474,476.469757 
	C31.168013,468.676514 36.450905,461.369904 42.817539,455.014587 
	C69.678322,428.201416 96.707092,401.556580 123.814766,374.711121 
	C125.151085,463.843018 124.964622,553.236450 122.634964,643.672363 
	C119.363998,640.031860 116.229134,636.257446 112.800125,632.772400 
	C88.978767,608.562134 63.809971,585.689026 40.807747,560.167480 
z"/>
<path fill="#FBFBFB" opacity="1.000000" stroke="none" 
	d="
M737.845032,720.999878 
	C737.845032,580.221375 737.845032,439.942932 737.845032,299.351227 
	C735.777954,299.938385 735.627625,301.639160 735.011963,302.805634 
	C678.991272,408.943848 622.991272,515.093018 567.104797,621.301941 
	C565.385437,624.569458 563.564392,625.876465 559.867310,625.659485 
	C553.401855,625.279907 545.845032,627.464844 540.718933,624.791443 
	C535.559570,622.100586 534.059448,614.098206 531.053345,608.380127 
	C469.942322,492.136932 408.886139,375.864868 347.818787,259.598633 
	C347.297363,258.605835 346.773010,257.614532 345.920227,255.997009 
	C353.777771,255.997009 361.030304,256.102600 368.277039,255.943634 
	C371.070068,255.882370 371.390350,257.985443 372.259644,259.637329 
	C402.529114,317.157013 432.774292,374.689453 463.029999,432.216339 
	C492.743896,488.713196 522.465454,545.205994 552.335999,601.990173 
	C554.049988,600.909729 554.446777,599.121399 555.221924,597.645752 
	C614.207764,485.354218 673.196228,373.064026 732.088745,260.723511 
	C733.914368,257.241028 735.869995,255.571014 740.001587,255.890503 
	C745.468750,256.313293 750.996155,256.102386 756.491699,255.948807 
	C758.893127,255.881714 759.897217,256.639587 759.587341,259.056366 
	C759.482239,259.876221 759.570007,260.720856 759.570007,261.554169 
	C759.570007,424.382965 759.538086,587.211853 759.712280,750.040466 
	C759.717957,755.333252 758.179382,756.605896 753.383240,756.062134 
	C748.312988,755.487183 741.464722,758.185669 738.583130,754.977844 
	C736.073730,752.184387 737.884827,745.476379 737.854431,740.497681 
	C737.815674,734.165344 737.845032,727.832520 737.845032,720.999878 
z"/>
<path fill="#FBFBFB" opacity="1.000000" stroke="none" 
	d="
M269.159790,567.000122 
	C269.159760,628.659607 269.113129,689.819275 269.262878,750.978394 
	C269.273041,755.129517 268.323608,756.516418 264.126556,756.092468 
	C260.167389,755.692505 256.103119,755.685852 252.145660,756.093933 
	C247.948990,756.526672 247.344238,754.748230 247.346039,751.067505 
	C247.426163,587.586731 247.427109,424.105865 247.336746,260.625031 
	C247.334747,257.009613 248.017990,255.624054 251.931534,255.897141 
	C257.404205,256.279053 262.933105,256.185455 268.418854,255.911896 
	C271.236542,255.771378 272.500793,256.899261 273.725830,259.226074 
	C337.300385,379.977814 400.920837,500.705414 464.611572,621.395935 
	C466.477631,624.932129 465.993195,625.847656 462.009857,625.642822 
	C456.857391,625.377808 451.663116,625.309448 446.521637,625.662720 
	C443.081970,625.898987 441.545837,624.434998 440.065399,621.620117 
	C406.489014,557.778625 372.826019,493.982727 339.186462,430.174500 
	C316.705719,387.532532 294.237152,344.884125 271.754822,302.242981 
	C271.231934,301.251251 270.609802,300.311859 269.159790,299.474182 
	C269.159790,388.482788 269.159790,477.491425 269.159790,567.000122 
z"/>
<path fill="#FCFCFC" opacity="1.000000" stroke="none" 
	d="
M453.266846,506.694702 
	C473.489227,545.104370 493.484863,583.212708 513.650940,621.230469 
	C515.843689,625.364258 514.561646,625.810303 510.737457,625.629395 
	C505.916534,625.401306 501.057587,625.309814 496.250977,625.656982 
	C492.396973,625.935425 490.471069,624.603882 488.644623,621.106812 
	C464.950806,575.738953 441.040863,530.484070 417.209595,485.187958 
	C377.592773,409.888214 337.993225,334.579346 298.389008,259.272949 
	C297.935730,258.411011 297.517151,257.530792 296.752594,255.998062 
	C304.663757,255.998062 312.051270,256.091858 319.434265,255.950394 
	C322.258881,255.896271 322.485077,258.130646 323.335785,259.742310 
	C340.247406,291.780487 357.120514,323.839020 373.983673,355.902771 
	C400.359314,406.053864 426.721741,456.211884 453.266846,506.694702 
z"/>
<path fill="#FCFCFC" opacity="1.000000" stroke="none" 
	d="
M694.163025,468.999908 
	C694.163025,449.836975 694.196533,431.173950 694.126282,412.511322 
	C694.116028,409.777222 694.597656,407.346344 695.906677,404.904083 
	C702.388550,392.811493 708.737610,380.647705 716.013062,368.626099 
	C716.013062,370.360809 716.013062,372.095520 716.013000,373.830231 
	C716.010559,499.471527 715.981384,625.112793 716.116699,750.753967 
	C716.121399,755.157043 715.118286,756.525085 710.718384,756.098572 
	C706.261169,755.666443 701.725708,755.893677 697.231873,756.046814 
	C694.853699,756.127808 693.868530,755.365906 694.125488,752.939636 
	C694.282654,751.456238 694.162659,749.943237 694.162720,748.443542 
	C694.163147,655.462341 694.163025,562.481140 694.163025,468.999908 
z"/>
<path fill="#FBFBFB" opacity="1.000000" stroke="none" 
	d="
M290.992432,472.000000 
	C290.992432,438.080627 290.992432,404.661285 290.992432,371.241913 
	C291.258667,371.174896 291.524872,371.107880 291.791107,371.040863 
	C298.597839,384.075348 305.442627,397.090302 312.149078,410.176178 
	C312.781128,411.409424 312.687317,413.088806 312.687592,414.561096 
	C312.710144,526.893494 312.694092,639.225830 312.777802,751.558167 
	C312.780273,754.880066 312.244965,756.357483 308.508453,756.085754 
	C303.700623,755.736084 298.843872,755.882080 294.016602,756.052490 
	C291.629517,756.136780 290.652466,755.421082 290.967224,752.994446 
	C291.116028,751.847046 290.992462,750.664429 290.992462,749.497742 
	C290.992432,657.165161 290.992432,564.832581 290.992432,472.000000 
z"/>
<path fill="#FCFCFC" opacity="1.000000" stroke="none" 
	d="
M591.451538,435.406677 
	C622.438660,376.574646 653.231628,318.058289 683.929077,259.491821 
	C685.253113,256.965729 686.601624,255.810211 689.578125,255.919983 
	C696.228699,256.165283 702.894531,255.996658 710.335754,255.996658 
	C656.339844,358.506500 602.572021,460.583405 548.469788,563.295044 
	C544.445801,555.933533 540.744324,548.996338 536.867004,542.158813 
	C535.516541,539.777344 537.348999,538.345032 538.174194,536.767395 
	C555.808716,503.054382 573.532959,469.388306 591.451538,435.406677 
z"/>
<path fill="#FAFAFA" opacity="1.000000" stroke="none" 
	d="
M672.688782,539.000244 
	C672.688599,609.803833 672.646057,680.107544 672.787903,750.410889 
	C672.796936,754.883789 671.796631,756.563782 667.126099,756.097351 
	C662.672546,755.652649 658.136047,755.890625 653.643616,756.047302 
	C651.423706,756.124634 650.628967,755.369812 650.871704,753.210815 
	C651.001099,752.059204 650.892517,750.881042 650.892517,749.714844 
	C650.891907,664.917358 650.904358,580.119873 650.843567,495.322449 
	C650.841064,491.895050 651.478149,488.867523 653.129333,485.837952 
	C658.933350,475.189087 664.528076,464.426331 670.264648,453.740295 
	C670.751404,452.833649 670.865112,451.463837 672.688782,451.028625 
	C672.688782,480.358551 672.688782,509.429352 672.688782,539.000244 
z"/>
<path fill="#FAFAFA" opacity="1.000000" stroke="none" 
	d="
M356.105194,630.000000 
	C356.105469,670.818604 356.052277,711.137451 356.195892,751.455566 
	C356.208984,755.130005 355.431122,756.402832 351.610809,756.095642 
	C346.975800,755.723022 342.282135,755.866943 337.625275,756.061646 
	C334.970551,756.172729 333.943726,755.263733 334.303223,752.665894 
	C334.393707,752.012268 334.312347,751.334961 334.312378,750.668579 
	C334.312958,653.204163 334.313782,555.739685 334.314606,458.275269 
	C334.314606,456.964172 334.314606,455.653046 334.314606,454.328430 
	C336.193756,453.990753 336.155792,455.640869 336.610687,456.488678 
	C342.659943,467.763306 348.564972,479.115692 354.670074,490.359589 
	C355.943726,492.705353 356.114807,495.039429 356.113922,497.548126 
	C356.098389,541.532104 356.104095,585.516052 356.105194,630.000000 
z"/>
<path fill="#FCFCFC" opacity="1.000000" stroke="none" 
	d="
M598.740723,373.749298 
	C573.611267,421.140076 548.656189,468.204132 523.367126,515.898010 
	C519.210083,508.384460 515.400635,501.411530 511.495178,494.492798 
	C510.294159,492.365112 511.860413,491.028748 512.662231,489.514221 
	C543.599487,431.080261 574.562805,372.660065 605.525208,314.239441 
	C615.250732,295.889008 625.034790,277.569275 634.649902,259.161224 
	C635.896545,256.774475 637.198425,255.829895 639.942078,255.921844 
	C646.744629,256.149841 653.559937,255.996750 661.101379,255.996750 
	C640.209106,295.447388 619.562073,334.434967 598.740723,373.749298 
z"/>
<path fill="#FBFBFB" opacity="1.000000" stroke="none" 
	d="
M615.748413,557.705566 
	C620.022827,549.636047 624.124329,541.896606 628.225830,534.157166 
	C628.499878,534.173035 628.773926,534.188904 629.047974,534.204773 
	C629.047974,535.756836 629.047974,537.308899 629.047974,538.860962 
	C629.047363,609.500732 628.997070,680.140564 629.163757,750.779907 
	C629.174316,755.250671 628.050049,756.514832 623.728577,756.091492 
	C619.603088,755.687500 615.389526,755.769775 611.247314,756.077942 
	C607.840271,756.331421 607.113831,755.057190 607.154663,751.877991 
	C607.321777,738.885071 607.225769,725.888794 607.225830,712.893738 
	C607.226074,669.910095 607.341125,626.925903 607.111084,583.943481 
	C607.073303,576.886902 608.042175,570.490784 611.997192,564.595642 
	C613.379089,562.535828 614.393372,560.229492 615.748413,557.705566 
z"/>
<path fill="#FBFBFB" opacity="1.000000" stroke="none" 
	d="
M377.952911,707.000000 
	C377.952911,650.013611 377.952911,593.527283 377.952911,536.963257 
	C379.671814,536.866577 379.639954,538.324036 380.086823,539.157715 
	C386.055176,550.291931 391.938995,561.471497 397.923492,572.596985 
	C399.219635,575.006592 399.824768,577.424194 399.821991,580.190125 
	C399.764984,637.180298 399.739075,694.170532 399.867401,751.160522 
	C399.876160,755.044922 398.969635,756.417664 394.967133,756.087280 
	C390.498657,755.718445 385.967651,755.846191 381.479553,756.071167 
	C378.658722,756.212463 377.861267,755.327393 377.887543,752.491638 
	C378.026611,737.495483 377.952881,722.497437 377.952911,707.000000 
z"/>
</svg>