<svg version="1.1" id="Layer_1" xmlns="http://www.w3.org/2000/svg" xmlns:xlink="http://www.w3.org/1999/xlink" x="0px" y="0px"
	 width="100%" viewBox="0 0 2000 1500" enable-background="new 0 0 2000 1500" xml:space="preserve">
<path fill="#111111" opacity="1.000000" stroke="none" 
	d="
M1365.000000,1501.000000 
	C911.500122,1501.000000 458.500275,1500.994507 5.500425,1501.092773 
	C1.752297,1501.093628 0.906343,1500.250366 0.907082,1496.500366 
	C1.004936,999.500549 1.004924,502.500702 0.907307,5.500870 
	C0.906571,1.753918 1.748032,0.906578 5.499158,0.907124 
	C669.165588,1.003712 1332.832031,1.003690 1996.498535,0.907544 
	C2000.244019,0.907001 2001.093872,1.745899 2001.093140,5.498567 
	C2000.995117,502.498383 2000.994995,999.498230 2001.092529,1496.498047 
	C2001.093262,1500.242310 2000.256104,1501.095825 1996.501953,1501.093872 
	C1786.167969,1500.988281 1575.833984,1501.000000 1365.000000,1501.000000 
z"/>
<path fill="#FBFBFB" opacity="1.000000" stroke="none" 
	d="
M1486.576904,705.405518 
	C1496.213379,721.106689 1501.910156,737.486450 1500.077026,755.884888 
	C1498.473755,771.975891 1491.417480,785.738403 1482.049927,798.532776 
	C1476.522217,806.082581 1470.169678,812.908997 1463.567139,819.512756 
	C1436.939697,846.146118 1410.350342,872.817810 1383.616821,899.344238 
	C1380.890625,902.049377 1379.915527,904.726379 1379.953491,908.492676 
	C1380.324585,945.318237 1380.606689,982.145325 1380.722656,1018.972595 
	C1380.774658,1035.491455 1379.496826,1051.897827 1375.027466,1067.924805 
	C1366.288940,1099.260254 1345.669434,1117.627686 1314.012939,1123.974365 
	C1303.196167,1126.142822 1292.246460,1126.939331 1281.225342,1126.936157 
	C1241.064697,1126.924805 1200.903809,1126.968018 1160.743408,1126.864258 
	C1157.490845,1126.855835 1155.226318,1127.802612 1152.924438,1130.103149 
	C1121.809448,1161.200562 1090.633911,1192.237793 1059.375122,1223.190796 
	C1053.328247,1229.178467 1046.388916,1234.127197 1039.143555,1238.596313 
	C1013.519958,1254.401855 987.484009,1255.067993 961.056152,1240.646484 
	C945.993164,1232.426880 933.125244,1221.391602 921.123718,1209.296387 
	C895.067566,1183.036865 869.063965,1156.725098 843.140442,1130.334839 
	C840.742310,1127.893555 838.404602,1126.842041 834.936401,1126.851562 
	C794.942993,1126.961548 754.948792,1126.984497 714.955505,1126.833618 
	C702.267761,1126.785767 689.694153,1125.275146 677.486511,1121.600952 
	C646.652039,1112.320923 630.317810,1090.428711 623.963013,1059.883545 
	C621.133545,1046.283325 620.176392,1032.509521 620.244507,1018.664246 
	C620.416626,983.670044 620.635376,948.675659 621.049988,913.683838 
	C621.097961,909.637268 619.795654,906.982666 616.992554,904.216614 
	C589.358276,876.946777 561.728699,849.669373 534.388428,822.105835 
	C524.043213,811.676025 515.395020,799.835144 508.874725,786.547424 
	C497.139038,762.631226 497.832153,739.102295 510.852722,715.886047 
	C517.845154,703.418335 527.124023,692.778137 537.164795,682.737000 
	C564.030396,655.870544 590.871277,628.979248 617.810303,602.186584 
	C620.112366,599.897034 621.073608,597.636780 621.042175,594.368835 
	C620.686707,557.376343 620.411194,520.382690 620.270874,483.388763 
	C620.209534,467.204285 621.431274,451.137512 625.606995,435.387604 
	C634.770325,400.825500 657.894348,382.343048 692.512024,377.018402 
	C702.080261,375.546661 711.715271,375.036713 721.397583,375.048431 
	C760.724976,375.095947 800.052795,375.003418 839.379578,375.166046 
	C843.413269,375.182739 846.102661,373.920654 848.882935,371.121094 
	C876.595154,343.216522 904.445923,315.449677 932.248413,287.634705 
	C940.864075,279.015137 949.942932,270.966064 960.251221,264.380127 
	C987.223267,247.147629 1014.533325,246.616882 1042.221680,262.609070 
	C1056.771851,271.012939 1069.268188,281.964478 1081.020020,293.833923 
	C1106.812988,319.884827 1132.608643,345.933228 1158.306763,372.077484 
	C1160.479004,374.287476 1162.604370,375.142273 1165.678467,375.134277 
	C1204.339111,375.033539 1243.000122,375.059662 1281.661011,375.072601 
	C1295.871582,375.077362 1309.946045,376.312439 1323.619507,380.428284 
	C1354.477539,389.716797 1370.711060,411.695129 1377.037354,442.230347 
	C1379.855591,455.833496 1380.792358,469.610901 1380.730591,483.453918 
	C1380.573120,518.781433 1380.322266,554.108765 1379.968750,589.434753 
	C1379.937622,592.546753 1380.878052,594.637207 1383.061157,596.784119 
	C1408.486450,621.787476 1433.846313,646.857727 1459.159668,671.974548 
	C1469.348999,682.084595 1478.744263,692.875122 1486.576904,705.405518 
z"/>
<path fill="#121212" opacity="1.000000" stroke="none" 
	d="
M1366.348145,936.000610 
	C1366.542603,962.998047 1366.819336,989.495667 1366.891968,1015.993774 
	C1366.934937,1031.668213 1366.020142,1047.247925 1362.134888,1062.569580 
	C1354.906860,1091.073486 1336.168579,1106.435059 1307.723511,1110.993652 
	C1299.318237,1112.340698 1290.863403,1112.999146 1282.347656,1112.994385 
	C1245.368408,1112.973877 1208.389282,1112.985596 1171.323364,1112.985596 
	C1171.030640,1110.971924 1172.719971,1110.393066 1173.639282,1109.465210 
	C1184.195801,1098.810181 1194.854614,1088.256348 1205.406738,1077.597046 
	C1209.409424,1073.553833 1209.389893,1068.608643 1205.418579,1066.055176 
	C1201.473511,1063.518921 1198.285278,1065.071411 1195.258911,1068.122314 
	C1181.527466,1081.965332 1167.657837,1095.671753 1153.972534,1109.559814 
	C1151.588135,1111.979492 1149.249023,1113.073975 1145.767212,1113.046021 
	C1124.269775,1112.873779 1102.770142,1112.985718 1081.271484,1112.930786 
	C1078.135986,1112.922729 1075.224609,1113.189209 1073.333862,1116.059570 
	C1071.971191,1118.128296 1071.626343,1120.326050 1072.775269,1122.682617 
	C1074.281372,1125.771973 1076.849487,1126.881836 1080.093628,1126.881348 
	C1089.926392,1126.880127 1099.759277,1126.881958 1109.592041,1126.882202 
	C1118.196777,1126.882446 1126.801514,1126.882324 1135.406372,1126.882324 
	C1135.705933,1127.307251 1136.005493,1127.732178 1136.305054,1128.157227 
	C1135.023438,1129.099487 1133.595459,1129.895020 1132.481934,1131.005859 
	C1107.822876,1155.605835 1083.210449,1180.252808 1058.561646,1204.863159 
	C1047.311279,1216.096191 1035.320679,1226.340820 1020.419067,1232.542358 
	C1002.912537,1239.827881 985.987915,1237.916748 969.446716,1229.336792 
	C954.922302,1221.803101 942.731384,1211.258423 931.305969,1199.778442 
	C907.912476,1176.273193 884.647400,1152.640259 861.333130,1129.056152 
	C860.898254,1128.616211 860.508911,1128.131348 859.403503,1126.882324 
	C861.785461,1126.882324 863.346558,1126.882324 864.907654,1126.882324 
	C881.573425,1126.881714 898.239563,1126.934326 914.904846,1126.847290 
	C919.750610,1126.822021 922.944641,1123.740356 922.823975,1119.694946 
	C922.708923,1115.838867 919.592468,1113.138550 915.023926,1112.967529 
	C913.858948,1112.923828 912.690979,1112.959473 911.524353,1112.959473 
	C890.858765,1112.959351 870.192932,1112.908203 849.527893,1113.018677 
	C846.660828,1113.033936 844.638428,1112.280518 842.574341,1110.193726 
	C774.600830,1041.471802 706.251160,973.125305 637.508667,905.172485 
	C635.580505,903.266418 634.820740,901.357422 634.822754,898.656189 
	C634.895203,801.994812 634.905884,705.333313 634.843506,608.671936 
	C634.841614,605.786194 635.630249,603.767334 637.702942,601.723267 
	C651.229126,588.383179 664.615967,574.901855 678.047913,561.466187 
	C679.697449,559.816162 681.346252,558.165405 682.990845,556.510498 
	C687.720093,551.751831 688.501343,547.730835 685.330933,544.487183 
	C681.956055,541.034363 678.192200,541.662231 673.327393,546.524780 
	C661.893921,557.952881 650.447937,569.368652 639.076294,580.858032 
	C637.960876,581.984985 637.325745,583.587280 636.360291,585.142029 
	C634.299377,582.727661 634.785889,581.350342 634.775818,580.113464 
	C634.515259,548.283020 634.214844,516.452454 634.105469,484.621277 
	C634.053345,469.446716 635.061279,454.377014 638.787537,439.538544 
	C645.890442,411.253540 664.356201,395.796448 692.562683,391.033997 
	C701.288025,389.560822 710.077393,388.947754 718.929260,388.957214 
	C754.760742,388.995514 790.592224,388.971954 826.423706,388.971222 
	C827.520630,388.971191 828.617493,388.971222 831.075012,388.971222 
	C824.561829,395.421204 818.936279,400.968994 813.337036,406.543213 
	C807.077332,412.775024 800.822266,419.011719 794.601990,425.282715 
	C790.385986,429.533112 789.883362,433.363800 793.019653,436.559875 
	C796.222351,439.823547 800.075806,439.404449 804.299500,435.193207 
	C818.697327,420.837738 833.109253,406.495636 847.395020,392.029205 
	C849.545044,389.852020 851.639099,388.906952 854.742859,388.931244 
	C873.907288,389.081390 893.073608,389.006653 912.239258,389.006622 
	C913.239197,389.006622 914.239563,389.024963 915.239014,389.003052 
	C920.520386,388.887268 923.801758,386.138733 923.712402,381.918060 
	C923.623108,377.697998 920.400635,375.097534 914.992493,375.083374 
	C900.160034,375.044586 885.327454,375.069916 870.494873,375.069885 
	C868.868896,375.069885 867.242920,375.069885 865.616943,375.069885 
	C865.199951,374.556641 864.782959,374.043396 864.365906,373.530151 
	C865.500366,372.938873 866.870239,372.583801 867.735107,371.721954 
	C892.996948,346.546417 918.190308,321.302216 943.436951,296.111359 
	C953.496094,286.074371 964.306641,277.061066 977.280701,270.862061 
	C994.735046,262.522369 1012.008240,263.156677 1029.222778,271.388794 
	C1041.206055,277.119263 1051.824219,284.932739 1061.275757,294.125824 
	C1088.266479,320.378052 1114.989014,346.905975 1141.754517,373.263855 
	C1139.770630,375.790619 1138.159668,375.022339 1136.817627,375.027344 
	C1119.652100,375.091400 1102.486206,375.057190 1085.320435,375.076996 
	C1079.487549,375.083740 1076.188110,377.546417 1076.071899,381.868896 
	C1075.951294,386.351654 1079.390381,388.996094 1085.476562,389.000427 
	C1107.475464,389.016174 1129.474487,389.053650 1151.472900,388.949219 
	C1154.330933,388.935638 1156.364136,389.659302 1158.435913,391.752777 
	C1226.310913,460.338654 1294.558472,528.552856 1363.160522,596.411621 
	C1365.371094,598.598145 1366.183716,600.739441 1366.181030,603.799438 
	C1366.096558,700.127502 1366.087036,796.455627 1366.158325,892.783691 
	C1366.160767,896.018860 1365.280029,898.297668 1362.953491,900.595337 
	C1346.709106,916.638489 1330.609985,932.828674 1314.476074,948.983521 
	C1313.303589,950.157532 1312.026611,951.297424 1311.141479,952.673889 
	C1309.159790,955.755127 1309.625854,958.807312 1312.209961,961.281128 
	C1314.626343,963.594299 1317.582520,963.934448 1320.449585,962.123169 
	C1321.972534,961.161011 1323.264282,959.795959 1324.552979,958.505615 
	C1338.089111,944.950806 1351.603271,931.374084 1366.344482,916.577942 
	C1366.344482,923.797363 1366.344482,929.649170 1366.348145,936.000610 
z"/>
<path fill="#121212" opacity="1.000000" stroke="none" 
	d="
M788.207397,1074.792236 
	C800.685059,1087.417480 812.914246,1099.791382 825.154541,1112.176514 
	C823.982239,1113.428345 822.922241,1112.967407 822.007202,1112.967896 
	C786.188660,1112.986816 750.370056,1113.021362 714.551697,1112.927734 
	C703.865173,1112.899780 693.282898,1111.592773 682.961365,1108.757568 
	C657.712097,1101.822266 643.748169,1084.501221 638.083496,1059.628418 
	C634.958618,1045.907593 634.069031,1031.958374 634.116577,1017.955444 
	C634.220764,987.301880 634.517334,956.648926 634.742920,925.995789 
	C634.749878,925.047363 634.840515,924.099609 634.953186,922.031616 
	C686.644653,973.113525 737.788757,1023.335632 788.207397,1074.792236 
z"/>
<path fill="#121212" opacity="1.000000" stroke="none" 
	d="
M1379.691162,670.999146 
	C1379.694580,651.756287 1379.694580,633.013489 1379.694580,614.270630 
	C1380.357178,613.866638 1381.019897,613.462585 1381.682495,613.058533 
	C1391.403442,623.251221 1401.019409,633.546631 1410.868652,643.613770 
	C1427.875610,660.996887 1446.010132,677.272949 1462.085327,695.569763 
	C1469.471558,703.976746 1475.822876,713.115601 1480.566895,723.308411 
	C1489.004028,741.436584 1488.569824,759.319397 1479.261841,777.033020 
	C1474.816406,785.492981 1469.527832,793.441406 1462.794067,800.131165 
	C1435.275635,827.469238 1407.501587,854.549866 1380.042603,881.508423 
	C1379.569092,812.209412 1378.568848,741.859131 1379.691162,670.999146 
z"/>
<path fill="#121212" opacity="1.000000" stroke="none" 
	d="
M1336.566650,401.332214 
	C1353.403687,412.406219 1360.366577,428.933441 1363.966064,447.431122 
	C1365.879761,457.265625 1366.726440,467.233643 1366.764526,477.221710 
	C1366.893311,511.027802 1366.813843,544.834717 1366.813843,578.997314 
	C1361.029785,576.186157 1183.396851,399.160492 1175.918823,389.006226 
	C1177.675659,389.006226 1179.101318,389.006226 1180.527100,389.006226 
	C1214.672241,389.006287 1248.817627,388.930511 1282.962402,389.036652 
	C1301.597412,389.094574 1319.838257,391.189545 1336.566650,401.332214 
z"/>
<path fill="#121212" opacity="1.000000" stroke="none" 
	d="
M535.200562,705.218689 
	C544.747131,694.036743 555.306274,684.331787 565.388855,674.167114 
	C583.567993,655.839966 601.861145,637.625916 620.795959,618.674805 
	C622.159912,708.813843 621.946045,798.197083 620.850342,887.535156 
	C619.941895,888.128296 619.572510,887.330017 619.184753,886.945557 
	C594.586609,862.556396 569.876892,838.277466 545.487427,813.681152 
	C534.906433,803.010376 525.918274,791.042114 519.775024,777.143433 
	C512.325317,760.288879 512.604797,743.622803 520.677124,727.052612 
	C524.490601,719.224670 529.385437,712.133301 535.200562,705.218689 
z"/>
<path fill="#FBFBFB" opacity="1.000000" stroke="none" 
	d="
M1234.845703,807.999878 
	C1234.845703,719.893616 1234.845703,632.287354 1234.845703,543.998718 
	C1232.615234,545.519165 1232.127319,547.505371 1231.275391,549.119507 
	C1175.580566,654.651611 1119.900635,760.191711 1064.347168,865.798340 
	C1062.470825,869.365173 1060.530640,871.016602 1056.419312,870.643860 
	C1050.000000,870.061890 1042.296631,872.935303 1037.429321,869.572510 
	C1032.801270,866.375122 1030.998535,859.028137 1028.065308,853.446960 
	C967.141174,737.525696 906.232666,621.596130 845.323914,505.666779 
	C844.638977,504.363098 843.990723,503.040131 842.965881,501.016144 
	C850.991821,501.016144 858.529663,500.981232 866.066895,501.036255 
	C868.509583,501.054108 868.579163,503.423431 869.361206,504.906494 
	C895.177002,553.858582 920.958313,602.828979 946.715942,651.811707 
	C980.209595,715.506287 1013.678345,779.213928 1047.161499,842.914062 
	C1047.856323,844.235901 1048.595581,845.534302 1049.347534,846.904602 
	C1051.157959,845.899536 1051.507202,844.005310 1052.314453,842.469055 
	C1111.223022,730.365906 1170.131714,618.262878 1228.896851,506.084503 
	C1230.958862,502.148346 1233.132446,500.506592 1237.589478,500.891266 
	C1242.717285,501.333740 1247.920776,501.167725 1253.075684,500.927338 
	C1256.051025,500.788574 1256.942993,501.921509 1256.591675,504.639038 
	C1256.485718,505.458588 1256.575684,506.303406 1256.575684,507.136658 
	C1256.575684,669.784668 1256.554688,832.432617 1256.682007,995.080566 
	C1256.685669,999.708313 1255.912231,1001.659912 1250.850464,1001.108521 
	C1245.760132,1000.554016 1238.817505,1002.810669 1235.903687,1000.218689 
	C1232.588501,997.269836 1234.896606,990.227722 1234.890259,984.978027 
	C1234.819702,926.152100 1234.845703,867.325989 1234.845703,807.999878 
z"/>
<path fill="#FBFBFB" opacity="1.000000" stroke="none" 
	d="
M865.948730,685.013672 
	C897.861450,745.628540 929.602539,805.915649 961.470398,866.135803 
	C963.435486,869.849060 963.221375,870.911377 958.823547,870.638306 
	C954.009888,870.339417 949.137390,870.261719 944.339233,870.666199 
	C940.375488,871.000366 938.561584,869.423462 936.774170,866.024658 
	C890.600647,778.223145 844.300049,690.488464 798.019226,602.743408 
	C788.483337,584.664062 778.949585,566.583435 769.375977,548.524048 
	C768.639038,547.133850 768.331482,545.403320 766.155762,544.167542 
	C766.155762,546.265381 766.155762,547.997192 766.155762,549.728943 
	C766.155762,698.193970 766.132751,846.659058 766.263794,995.123962 
	C766.267822,999.727051 765.541809,1001.668701 760.481567,1001.113403 
	C755.377502,1000.553223 748.404785,1002.845459 745.490051,1000.250000 
	C742.159302,997.284302 744.467041,990.215942 744.465332,984.943970 
	C744.412598,825.648132 744.449585,666.352295 744.297485,507.056549 
	C744.292664,502.013245 745.440430,500.418396 750.507263,500.888733 
	C756.593750,501.453705 763.922852,499.239441 768.542908,501.941071 
	C772.951599,504.519073 774.620117,511.841919 777.408020,517.123901 
	C806.883667,572.967712 836.342407,628.820435 865.948730,685.013672 
z"/>
<path fill="#FCFCFC" opacity="1.000000" stroke="none" 
	d="
M887.178101,631.754822 
	C928.430603,710.174438 969.509399,788.264465 1010.672302,866.310242 
	C1012.458984,869.697937 1012.316711,870.844971 1008.151978,870.629456 
	C1003.000488,870.362793 997.808716,870.318481 992.664917,870.650818 
	C989.128052,870.879272 987.458618,869.517273 985.853882,866.460999 
	C934.329895,768.332886 882.700989,670.259766 831.088135,572.178284 
	C819.480103,550.119019 807.870728,528.060425 796.270996,505.996765 
	C795.514038,504.557037 794.835083,503.076385 793.818359,500.998535 
	C801.716553,500.998535 809.120422,501.074554 816.521301,500.959900 
	C819.345276,500.916138 819.516052,503.218170 820.364807,504.827637 
	C842.298096,546.423523 864.187378,588.042664 886.084534,629.657593 
	C886.393860,630.245422 886.708069,630.830627 887.178101,631.754822 
z"/>
<path fill="#FCFCFC" opacity="1.000000" stroke="none" 
	d="
M1213.005249,711.000000 
	C1213.005249,806.149475 1212.973022,900.798950 1213.106812,995.448242 
	C1213.113037,999.882690 1212.185547,1001.582275 1207.524048,1001.098633 
	C1203.237671,1000.653809 1198.863647,1000.879089 1194.538086,1001.051514 
	C1192.018066,1001.152039 1190.730835,1000.500671 1191.140869,997.761292 
	C1191.262939,996.946411 1191.159180,996.097717 1191.159180,995.264526 
	C1191.159058,882.951599 1191.171021,770.638733 1191.102661,658.325867 
	C1191.100586,654.873718 1191.807739,651.861084 1193.432373,648.841980 
	C1199.731445,637.135986 1205.883789,625.351074 1213.005249,613.620605 
	C1213.005249,645.913757 1213.005249,678.206848 1213.005249,711.000000 
z"/>
<path fill="#FBFBFB" opacity="1.000000" stroke="none" 
	d="
M787.992310,619.715881 
	C787.992249,618.312805 787.992249,617.318542 787.992249,614.733032 
	C791.102234,620.569763 793.148376,625.378540 796.020386,629.629517 
	C807.544495,646.686829 810.221680,665.271729 810.067932,685.748352 
	C809.293762,788.864319 809.677917,891.989441 809.824280,995.111023 
	C809.830933,999.799744 808.957275,1001.638245 803.957031,1001.107605 
	C798.866821,1000.567261 791.892273,1002.825073 789.026184,1000.230591 
	C785.753845,997.268311 788.035095,990.224365 788.032837,984.966187 
	C787.980042,863.352356 787.992188,741.738586 787.992310,619.715881 
z"/>
<path fill="#FCFCFC" opacity="1.000000" stroke="none" 
	d="
M1178.204834,556.261902 
	C1133.931885,640.344360 1089.821045,724.090576 1045.477905,808.277893 
	C1041.543701,801.125549 1037.994141,794.360535 1034.119385,787.786987 
	C1032.637695,785.273071 1034.139893,783.700562 1035.080811,781.909912 
	C1061.507568,731.615784 1087.962036,681.336304 1114.419556,631.058289 
	C1136.544800,589.012939 1158.716187,546.991760 1180.729248,504.887817 
	C1182.255493,501.968536 1183.788208,500.750122 1187.146729,500.907379 
	C1193.615601,501.210327 1200.108643,500.995758 1207.334961,500.995758 
	C1197.520996,519.605347 1187.943970,537.765503 1178.204834,556.261902 
z"/>
<path fill="#FAFAFA" opacity="1.000000" stroke="none" 
	d="
M1169.682617,961.000244 
	C1169.682617,973.327576 1169.557251,985.157043 1169.762451,996.980774 
	C1169.820435,1000.329224 1168.808350,1001.269714 1165.560913,1001.078308 
	C1160.912842,1000.804382 1156.220581,1000.773560 1151.577637,1001.088440 
	C1148.304810,1001.310425 1147.831665,1000.060547 1147.834229,997.146545 
	C1147.909180,910.857239 1147.893921,824.567932 1147.904907,738.278564 
	C1147.905151,736.803345 1147.811646,735.356567 1148.581421,733.916321 
	C1155.301514,721.345032 1161.950684,708.735840 1169.682617,696.283020 
	C1169.682617,784.355408 1169.682617,872.427795 1169.682617,961.000244 
z"/>
<path fill="#FAFAFA" opacity="1.000000" stroke="none" 
	d="
M831.317444,768.999756 
	C831.317444,745.426392 831.317444,722.352966 831.317444,699.279602 
	C831.629395,699.176514 831.941345,699.073364 832.253296,698.970276 
	C834.401428,702.969604 836.579712,706.953186 838.691650,710.971558 
	C843.481201,720.084900 850.059998,728.759033 852.492310,738.468201 
	C854.889282,748.036621 853.099731,758.660583 853.100830,768.821411 
	C853.108704,844.455750 853.063293,920.090149 853.213318,995.724182 
	C853.221985,1000.068787 852.297852,1001.548523 847.841003,1001.105591 
	C843.386841,1000.662964 838.849915,1000.886536 834.358215,1001.056335 
	C831.905273,1001.149109 831.038818,1000.257019 831.296448,997.899841 
	C831.422363,996.747437 831.317444,995.569885 831.317444,994.403687 
	C831.317444,919.435730 831.317444,844.467773 831.317444,768.999756 
z"/>
<path fill="#FCFCFC" opacity="1.000000" stroke="none" 
	d="
M1151.481079,513.525330 
	C1107.805908,595.896301 1064.336182,677.959473 1020.407776,760.888550 
	C1016.143311,753.225281 1012.115662,746.157166 1008.282104,738.985352 
	C1007.259827,737.072937 1009.114563,735.566406 1009.927185,734.030334 
	C1041.390381,674.558411 1072.890137,615.105896 1104.388306,555.652466 
	C1113.409912,538.623962 1122.508911,521.635803 1131.398926,504.539001 
	C1132.825806,501.794769 1134.401367,500.788757 1137.496948,500.913879 
	C1144.120605,501.181580 1150.762329,500.995850 1158.012207,500.995850 
	C1155.751343,505.364014 1153.718994,509.290802 1151.481079,513.525330 
z"/>
<path fill="#FCFCFC" opacity="1.000000" stroke="none" 
	d="
M1104.221558,901.999878 
	C1104.221558,875.355530 1104.253906,849.211121 1104.176514,823.067017 
	C1104.167969,820.142456 1104.749634,817.568481 1106.136719,814.998047 
	C1112.570435,803.074158 1118.891846,791.089722 1126.046631,779.259827 
	C1126.046631,780.824341 1126.046631,782.388916 1126.046631,783.953430 
	C1126.046631,854.559753 1125.997559,925.166199 1126.163330,995.772156 
	C1126.173706,1000.220215 1125.089600,1001.539307 1120.744751,1001.091797 
	C1116.790161,1000.684387 1112.734985,1000.725281 1108.771240,1001.085815 
	C1104.954712,1001.432922 1104.112793,1000.126648 1104.131470,996.419128 
	C1104.289429,965.113342 1104.221558,933.806458 1104.221558,901.999878 
z"/>
<path fill="#FCFCFC" opacity="1.000000" stroke="none" 
	d="
M896.536743,820.993347 
	C896.724426,879.994019 896.725037,938.605347 896.850342,997.216431 
	C896.857056,1000.353149 895.975464,1001.224976 892.934692,1001.070557 
	C888.118225,1000.825928 883.272156,1000.837097 878.454468,1001.068787 
	C875.595154,1001.206238 874.837646,1000.277283 874.888977,997.473572 
	C875.059448,988.151978 874.953247,978.825317 874.953247,969.500610 
	C874.953247,908.723633 874.953247,847.946594 874.953247,787.169617 
	C874.953247,785.414856 874.953247,783.660095 874.953247,781.905334 
	C875.247559,781.827271 875.541870,781.749146 875.836121,781.671021 
	C882.682739,794.648682 889.529297,807.626343 896.536743,820.993347 
z"/>
</svg>